<?xml version="1.0" encoding="utf-8"?>
<!-- Generator: Adobe Illustrator 23.0.5, SVG Export Plug-In . SVG Version: 6.00 Build 0)  -->
<svg version="1.1" id="Layer_1" xmlns="http://www.w3.org/2000/svg" xmlns:xlink="http://www.w3.org/1999/xlink" x="0px" y="0px"
	 viewBox="0 0 861 311" style="enable-background:new 0 0 861 311;" xml:space="preserve">
<g>
	<path d="M34,0.7C35.4,0.1,37,0,38.5,0c80,0,160.1,0,240.1,0c2.7-0.1,6.5,0.7,6.9,4c0,3.4-2.4,6.1-4.6,8.4
		c-17.6,17.1-35.2,34.1-52.7,51.2c-3.3,3.3-8.2,4.1-12.7,4.1c-36.3,0-72.7,0-109.1,0c-4.7,0-9.5,0.3-13.9-1.5
		c-2.6-0.9-4.3-3.1-6.3-5C69.6,44.9,52.8,28.7,36.1,12.4C34,10.3,31.9,8,31.5,5C31.1,3.2,32.3,1.4,34,0.7z"/>
	<path d="M646.5,11c18.8-3.4,39.4,0.3,54.6,12.4c-4.7,6.7-9.5,13.4-14.3,20.2c-8.3-5.8-18-10-28.3-10.1c-3.3,0-7.1,0.4-9.4,3
		c-2.3,2.5-1.7,6.9,1.2,8.8c3.7,2.3,8,3.2,12.1,4.3c10.8,2.5,21.9,5,31,11.5c5,3.4,8.6,8.8,9.8,14.8c1.8,9.5,0,20.1-6.6,27.4
		c-7.3,8.2-18.3,11.9-29,12.6c-19.1,1.3-39.2-3.9-53.6-16.8c5.3-6.3,10.6-12.6,15.9-18.9c10.2,8.2,23.4,13.3,36.6,12.1
		c3.6-0.3,8-2.2,8.4-6.3c0.6-3.4-2.3-6-5.2-7.1c-8.5-3.4-17.8-4.5-26.4-7.5c-7.4-2.4-14.9-6-19.8-12.3c-5.3-7.5-5.9-17.7-3.3-26.3
		C623.9,21.1,634.9,13.2,646.5,11z"/>
	<path d="M786.9,17.4c13.6-8.3,30.7-10,45.9-5.6c10.7,3.1,19.9,10.2,26.4,19.1c-7,5.4-13.9,10.8-20.8,16.2c-4-4.9-9-9.1-15.1-10.9
		c-7.3-2.2-15.8-1.3-21.8,3.6c-13.9,11-13.9,35.2,0,46.2c6.3,5,15.1,5.7,22.6,3.5c6.1-2,10.8-6.6,14.8-11.4
		c7.2,5.1,14.3,10.2,21.5,15.4c-4.9,6.5-10.6,12.6-17.9,16.4c-11,5.9-23.8,7.6-36,5.9c-14.2-2-27.5-10.2-35.4-22.2
		c-8-11.8-10.6-26.8-8.1-40.7C765.5,38.4,774.2,24.9,786.9,17.4z"/>
	<path d="M383,11.5c10.1,0,20.1,0,30.2,0c8.1,13.3,16.3,26.5,24.5,39.7c8.2-13.3,16.3-26.5,24.5-39.8c10.1,0,20.1,0,30.2,0
		c0,34.3,0,68.5,0,102.8c-9.5,0-19,0-28.5,0c0-19.7,0-39.3,0-59c-8.8,13.5-17.6,27-26.4,40.5c-9.1-13.2-17.7-26.8-26.6-40.2
		c0,19.6,0,39.1,0,58.7c-9.3,0-18.6,0-27.9,0C383,80,383,45.8,383,11.5z"/>
	<path d="M509.2,11.5c9.6,0,19.3,0,28.9,0c0,19.5,0,38.9,0,58.4c0,7.3,2.8,15.5,9.9,18.8c7.1,3.1,16.4,2.6,22.3-2.8
		c4.3-4,5.6-10.2,5.6-15.9c0-19.5,0-39,0-58.5c9.6,0,19.3,0,28.9,0c0,16.2,0,32.3,0,48.5c0.2,12.2,0,25.2-6.2,36.1
		c-6.2,11.4-18.7,17.8-31.2,19.4c-12.1,1.5-24.9,0.9-36-4.3c-8.1-3.8-14.9-10.6-18.2-19c-3.1-7.3-4-15.3-4-23.1
		C509.2,49.9,509.2,30.7,509.2,11.5z"/>
	<path d="M718.1,11.5c9.5,0,19,0,28.5,0c0,34.3,0,68.5,0,102.8c-9.5,0-19,0-28.5,0C718.1,80,718.1,45.8,718.1,11.5z"/>
	<path d="M1.8,29.4c1.5-1.4,3.7-1.1,5.4-0.3c3.1,1.4,5.3,4.1,7.6,6.5c16.5,17.2,32.9,34.4,49.4,51.6c2.9,3.1,3.8,7.5,3.9,11.7
		c0,38.4,0,76.7,0,115.1c-0.1,4.1-0.9,8.7-3.8,11.8c-17.1,17.9-34.3,35.8-51.4,53.7c-2.1,2.1-4.4,4.4-7.5,5
		c-1.7,0.5-3.6-0.3-4.4-1.9c-1.4-2.7-0.9-5.8-1-8.6C0,194.7,0,115.3,0,36C0.1,33.7,0.1,31.1,1.8,29.4z"/>
	<path d="M308.7,33.3c1.7-0.9,4-1.3,5.6,0c1.9,1.6,2.1,4.3,2.1,6.7c0,78,0,156.1,0,234.1c0,2.6-0.8,6.2-3.9,6.7
		c-3.4,0.3-6.2-2.1-8.5-4.3c-16.5-16.1-33-32.3-49.5-48.4c-4.1-3.1-6.3-8-6.3-13.1c-0.1-38.6,0-77.3,0-115.9
		c0.1-4.1,0.9-8.5,3.9-11.5c16.5-16.2,33-32.3,49.6-48.4C303.8,37,305.9,34.6,308.7,33.3z"/>
	<path d="M104.9,96.5c34.9-0.3,69.8-0.1,104.7-0.1c4.1-0.3,8,3.4,7.8,7.5c0,34.4,0,68.8,0,103.2c0.2,4.2-3.7,7.9-7.8,7.6
		c-34.4,0-68.8,0-103.1,0c-4.2,0.3-8-3.4-7.8-7.6c-0.1-34,0-68.1,0-102.1C98.2,101.1,100.9,97.1,104.9,96.5z"/>
	<g>
		<path d="M607.1,143.8c18.8-2.8,38.5,0.3,55.2,9.5c13.7,7.3,25.1,18.8,32.2,32.6c9.2,17.3,11.6,38,6.9,57
			c-4.5,17.8-15,34.2-29.9,45.1c-27.6,20.5-67.7,22.2-97,4.2c-11.5-7-21.2-16.9-27.7-28.6c-10-17.4-12.6-38.7-8.1-58.2
			c4.4-18.4,15.3-35.3,30.8-46.3C580.6,151,593.6,145.8,607.1,143.8z M610.1,182.8c-9.8,2.3-18.1,9.1-23.2,17.6
			c-5.6,9.2-7.2,20.5-5.6,31c1.7,11.2,8.4,21.6,17.7,28c9.5,6.5,21.8,7.6,32.7,4.8c9.8-2.6,17.8-9.7,22.8-18.4
			c5-8.7,6.4-19.1,5.1-28.9c-1.5-11.4-8-22-17.3-28.7C633,181.7,620.9,180.3,610.1,182.8z"/>
	</g>
	<g>
		<path d="M383.3,145.9c27.4,0,54.8,0,82.2,0c13.8,0.3,28.6,3.3,39,13c12.5,11.3,14,31.6,5.7,45.6c-4.3,7.1-11.3,12-18.8,15.3
			c10.8,3.7,21.6,9.8,27,20.3c4.5,9.6,5,20.9,2.2,31.1c-3.5,11.9-13.6,20.5-24.9,24.9c-15.3,6.2-32.1,5.3-48.2,5.3
			c-21.4,0-42.8,0-64.2,0C383.3,249.5,383.3,197.7,383.3,145.9z M425.5,179.9c0,9.2-0.1,18.5,0.1,27.7c9.3-0.1,18.7,0,28-0.1
			c4.6-0.1,9.3-0.7,13.3-3c7.4-4.1,8.1-16.2,1.1-21c-4.2-3-9.5-3.6-14.5-3.6C444.1,179.9,434.8,179.9,425.5,179.9z M425.5,238
			c0,9.8,0,19.5,0,29.3c11,0,22,0,33,0c5.4,0,11.1-0.7,15.5-4c6.6-4.6,7.2-15.7,0.9-20.8c-4.6-3.8-10.8-4.4-16.5-4.5
			C447.5,238,436.5,238,425.5,238z"/>
	</g>
	<path d="M705.7,145.9c16.5,0,33,0,49.5,0c9.1,14.6,18.3,29.2,27.5,43.8c9.3-14.6,18.5-29.2,27.7-43.8c16.1,0,32.2,0,48.3,0
		c-17,25.3-34,50.7-51,76c17.8,26.5,35.5,53,53.3,79.5c-16.5,0-33,0-49.5,0c-9.9-15.6-19.9-31.2-29.8-46.9
		c-10,15.6-19.9,31.2-29.9,46.9c-16.1,0-32.2,0-48.3,0c17.7-26.4,35.5-52.7,53.2-79.1C739.6,196.8,722.7,171.3,705.7,145.9z"/>
	<path d="M96,243.7c1.8-0.5,3.7-0.6,5.5-0.6c38.4,0,76.7,0,115.1,0c4.2,0,8.8,0.8,12,3.7c17.3,16.4,34.6,32.8,51.8,49.2
		c3.1,3.1,7.3,6.2,7.3,11c-0.5,3.3-4.4,3.9-7.1,3.9c-81.1,0-162.1,0-243.1,0c-2.5,0-5.7-0.5-6.7-3.1c-0.8-3.7,2.1-6.8,4.5-9.2
		c18.1-17.2,36.2-34.4,54.3-51.6C91.2,245.3,93.6,244.3,96,243.7z"/>
</g>
</svg>
